<?xml version="1.0" encoding="UTF-8"?>
<!DOCTYPE svg PUBLIC "-//W3C//DTD SVG 1.1//EN" "http://www.w3.org/Graphics/SVG/1.1/DTD/svg11.dtd">
<svg xmlns="http://www.w3.org/2000/svg" version="1.1" width="500px" height="500px" style="shape-rendering:geometricPrecision; text-rendering:geometricPrecision; image-rendering:optimizeQuality; fill-rule:evenodd; clip-rule:evenodd" xmlns:xlink="http://www.w3.org/1999/xlink">
<g><path style="opacity:1" fill="#8d9ad1" d="M 151.5,210.5 C 153.833,212.167 155.833,214.167 157.5,216.5C 157.5,216.833 157.5,217.167 157.5,217.5C 156.833,217.167 156.167,216.833 155.5,216.5C 152.68,213.701 150.013,213.868 147.5,217C 143.075,217.956 141.408,216.123 142.5,211.5C 139.5,211.167 138.167,212.5 138.5,215.5C 137.566,214.432 137.232,213.099 137.5,211.5C 141.62,208.303 144.453,209.303 146,214.5C 148.015,213.303 149.849,211.97 151.5,210.5 Z"/></g>
<g><path style="opacity:1" fill="#c1d6f7" d="M 144.5,206.5 C 145.791,206.263 146.791,206.596 147.5,207.5C 146.761,207.369 146.094,207.536 145.5,208C 147.488,208.938 149.488,209.772 151.5,210.5C 149.849,211.97 148.015,213.303 146,214.5C 144.453,209.303 141.62,208.303 137.5,211.5C 137.167,211.5 136.833,211.5 136.5,211.5C 136.5,210.833 136.5,210.167 136.5,209.5C 139.163,208.248 141.83,207.248 144.5,206.5 Z"/></g>
<g><path style="opacity:0.863" fill="#7986b4" d="M 147.5,207.5 C 155.035,209.704 160.368,214.371 163.5,221.5C 162.833,221.5 162.167,221.5 161.5,221.5C 160.876,219.246 159.543,217.579 157.5,216.5C 155.833,214.167 153.833,212.167 151.5,210.5C 149.488,209.772 147.488,208.938 145.5,208C 146.094,207.536 146.761,207.369 147.5,207.5 Z"/></g>
<g><path style="opacity:1" fill="#4a8ed4" d="M 144.5,206.5 C 141.83,207.248 139.163,208.248 136.5,209.5C 135.167,209.5 134.5,210.167 134.5,211.5C 134.167,211.5 133.833,211.5 133.5,211.5C 130.562,208.682 127.896,209.015 125.5,212.5C 126.59,213.609 126.59,214.609 125.5,215.5C 123.513,213.673 121.179,212.673 118.5,212.5C 122.345,209.454 126.678,207.454 131.5,206.5C 135.971,206.712 140.305,206.712 144.5,206.5 Z"/></g>
<g><path style="opacity:1" fill="#1fa3f3" d="M 131.5,211.5 C 132.167,211.5 132.833,211.5 133.5,211.5C 133.833,211.5 134.167,211.5 134.5,211.5C 134.5,217.5 134.5,223.5 134.5,229.5C 133.5,229.5 132.5,229.5 131.5,229.5C 131.5,227.5 131.5,225.5 131.5,223.5C 133.545,221.304 133.878,218.97 132.5,216.5C 133.734,214.602 133.401,212.935 131.5,211.5 Z"/></g>
<g><path style="opacity:1" fill="#32bdfb" d="M 133.5,211.5 C 132.833,211.5 132.167,211.5 131.5,211.5C 127.932,211.759 126.599,213.759 127.5,217.5C 124.395,217.218 121.562,216.218 119,214.5C 116.244,214.424 115.077,215.757 115.5,218.5C 114.833,217.833 114.167,217.167 113.5,216.5C 114.585,214.413 116.251,213.08 118.5,212.5C 121.179,212.673 123.513,213.673 125.5,215.5C 126.59,214.609 126.59,213.609 125.5,212.5C 127.896,209.015 130.562,208.682 133.5,211.5 Z"/></g>
<g><path style="opacity:1" fill="#426bb9" d="M 131.5,206.5 C 126.678,207.454 122.345,209.454 118.5,212.5C 116.251,213.08 114.585,214.413 113.5,216.5C 114.014,218.512 114.18,220.512 114,222.5C 111.779,223.406 109.612,224.406 107.5,225.5C 106.978,227.219 105.978,228.552 104.5,229.5C 107.686,214.979 116.686,207.312 131.5,206.5 Z"/></g>
<g><path style="opacity:1" fill="#b3d2f8" d="M 155.5,216.5 C 154.551,219.208 154.551,221.874 155.5,224.5C 156.736,225.246 158.07,225.579 159.5,225.5C 159.175,227.132 158.175,228.132 156.5,228.5C 153.855,227.892 151.188,227.392 148.5,227C 150.119,226.764 151.119,225.931 151.5,224.5C 152.968,222.389 152.635,220.556 150.5,219C 146.888,219.451 143.221,219.951 139.5,220.5C 139.371,218.784 139.038,217.117 138.5,215.5C 138.167,212.5 139.5,211.167 142.5,211.5C 141.408,216.123 143.075,217.956 147.5,217C 150.013,213.868 152.68,213.701 155.5,216.5 Z"/></g>
<g><path style="opacity:1" fill="#0387db" d="M 131.5,211.5 C 133.401,212.935 133.734,214.602 132.5,216.5C 132.707,219.127 131.54,220.793 129,221.5C 125.213,219.019 121.546,219.019 118,221.5C 116.955,220.627 116.122,219.627 115.5,218.5C 115.077,215.757 116.244,214.424 119,214.5C 121.562,216.218 124.395,217.218 127.5,217.5C 126.599,213.759 127.932,211.759 131.5,211.5 Z"/></g>
<g><path style="opacity:1" fill="#b6d0f9" d="M 157.5,216.5 C 159.543,217.579 160.876,219.246 161.5,221.5C 160.821,223.814 159.488,224.147 157.5,222.5C 156.566,220.905 156.566,219.239 157.5,217.5C 157.5,217.167 157.5,216.833 157.5,216.5 Z"/></g>
<g><path style="opacity:1" fill="#2fbaf9" d="M 113.5,216.5 C 114.167,217.167 114.833,217.833 115.5,218.5C 116.122,219.627 116.955,220.627 118,221.5C 121.546,219.019 125.213,219.019 129,221.5C 131.54,220.793 132.707,219.127 132.5,216.5C 133.878,218.97 133.545,221.304 131.5,223.5C 127.837,222.659 124.17,222.159 120.5,222C 122.788,222.946 124.955,224.113 127,225.5C 127.689,228.329 126.522,229.996 123.5,230.5C 123.709,231.086 124.043,231.586 124.5,232C 127.896,231.546 131.229,231.713 134.5,232.5C 134.5,232.833 134.5,233.167 134.5,233.5C 134.631,234.239 134.464,234.906 134,235.5C 133.196,234.196 132.029,233.529 130.5,233.5C 127.777,234.722 125.11,234.722 122.5,233.5C 122.586,232.504 122.252,231.671 121.5,231C 122.676,229.326 124.01,227.826 125.5,226.5C 122.549,225.684 119.716,224.684 117,223.5C 115.93,223.528 115.097,223.861 114.5,224.5C 112.614,225.065 110.947,226.065 109.5,227.5C 110.668,229.217 112.335,229.884 114.5,229.5C 114.5,230.167 114.5,230.833 114.5,231.5C 111.325,232.091 108.991,231.091 107.5,228.5C 107.5,227.5 107.5,226.5 107.5,225.5C 109.612,224.406 111.779,223.406 114,222.5C 114.18,220.512 114.014,218.512 113.5,216.5 Z"/></g>
<g><path style="opacity:1" fill="#6984c3" d="M 151.5,224.5 C 149.374,225.048 147.374,225.715 145.5,226.5C 144.662,226.842 144.328,227.508 144.5,228.5C 143.427,227.749 143.26,226.749 144,225.5C 146.185,224.33 148.351,223.164 150.5,222C 147.16,222.155 143.826,222.655 140.5,223.5C 139.909,222.849 139.243,222.182 138.5,221.5C 138.624,220.893 138.957,220.56 139.5,220.5C 143.221,219.951 146.888,219.451 150.5,219C 152.635,220.556 152.968,222.389 151.5,224.5 Z"/></g>
<g><path style="opacity:1" fill="#7083ca" d="M 155.5,216.5 C 156.167,216.833 156.833,217.167 157.5,217.5C 156.566,219.239 156.566,220.905 157.5,222.5C 159.488,224.147 160.821,223.814 161.5,221.5C 162.167,221.5 162.833,221.5 163.5,221.5C 165.585,223.684 166.585,226.351 166.5,229.5C 165.71,230.609 165.21,231.942 165,233.5C 163.989,232.663 162.822,232.33 161.5,232.5C 159.735,231.539 157.735,231.205 155.5,231.5C 154.791,230.596 153.791,230.263 152.5,230.5C 152.5,230.167 152.5,229.833 152.5,229.5C 155.167,229.5 157.833,229.5 160.5,229.5C 160.768,227.901 160.434,226.568 159.5,225.5C 158.07,225.579 156.736,225.246 155.5,224.5C 154.551,221.874 154.551,219.208 155.5,216.5 Z"/></g>
<g><path style="opacity:1" fill="#0481d8" d="M 131.5,223.5 C 131.5,225.5 131.5,227.5 131.5,229.5C 132.5,229.5 133.5,229.5 134.5,229.5C 134.5,230.5 134.5,231.5 134.5,232.5C 131.229,231.713 127.896,231.546 124.5,232C 124.043,231.586 123.709,231.086 123.5,230.5C 126.522,229.996 127.689,228.329 127,225.5C 124.955,224.113 122.788,222.946 120.5,222C 124.17,222.159 127.837,222.659 131.5,223.5 Z"/></g>
<g><path style="opacity:1" fill="#0582d5" d="M 114.5,224.5 C 115.097,223.861 115.93,223.528 117,223.5C 119.716,224.684 122.549,225.684 125.5,226.5C 124.01,227.826 122.676,229.326 121.5,231C 122.252,231.671 122.586,232.504 122.5,233.5C 121.5,232.167 120.5,232.167 119.5,233.5C 119.267,231.938 118.6,230.605 117.5,229.5C 121.122,228.898 121.455,227.398 118.5,225C 117.207,224.51 115.873,224.343 114.5,224.5 Z"/></g>
<g><path style="opacity:1" fill="#9bc2f6" d="M 144.5,228.5 C 145.806,229.467 146.473,230.801 146.5,232.5C 143.513,232.002 140.513,231.502 137.5,231C 138.044,230.283 138.711,229.783 139.5,229.5C 140.289,227.405 140.622,225.405 140.5,223.5C 143.826,222.655 147.16,222.155 150.5,222C 148.351,223.164 146.185,224.33 144,225.5C 143.26,226.749 143.427,227.749 144.5,228.5 Z"/></g>
<g><path style="opacity:1" fill="#0178d4" d="M 114.5,224.5 C 115.873,224.343 117.207,224.51 118.5,225C 121.455,227.398 121.122,228.898 117.5,229.5C 116.5,229.5 115.5,229.5 114.5,229.5C 112.335,229.884 110.668,229.217 109.5,227.5C 110.947,226.065 112.614,225.065 114.5,224.5 Z"/></g>
<g><path style="opacity:1" fill="#7b90d6" d="M 136.5,211.5 C 136.833,211.5 137.167,211.5 137.5,211.5C 137.232,213.099 137.566,214.432 138.5,215.5C 139.038,217.117 139.371,218.784 139.5,220.5C 138.957,220.56 138.624,220.893 138.5,221.5C 139.243,222.182 139.909,222.849 140.5,223.5C 140.622,225.405 140.289,227.405 139.5,229.5C 138.791,228.596 137.791,228.263 136.5,228.5C 136.5,222.833 136.5,217.167 136.5,211.5 Z"/></g>
<g><path style="opacity:1" fill="#99c3f3" d="M 151.5,224.5 C 151.119,225.931 150.119,226.764 148.5,227C 151.188,227.392 153.855,227.892 156.5,228.5C 158.175,228.132 159.175,227.132 159.5,225.5C 160.434,226.568 160.768,227.901 160.5,229.5C 157.833,229.5 155.167,229.5 152.5,229.5C 151.036,230.405 149.702,230.405 148.5,229.5C 147.167,228.833 146.167,227.833 145.5,226.5C 147.374,225.715 149.374,225.048 151.5,224.5 Z"/></g>
<g><path style="opacity:1" fill="#046fc9" d="M 107.5,228.5 C 108.991,231.091 111.325,232.091 114.5,231.5C 116.311,231.572 117.644,232.405 118.5,234C 116.819,237.767 117.486,240.934 120.5,243.5C 118.5,243.5 116.5,243.5 114.5,243.5C 114.5,242.5 114.5,241.5 114.5,240.5C 115.119,235.794 113.119,233.127 108.5,232.5C 107.766,231.292 107.433,229.959 107.5,228.5 Z"/></g>
<g><path style="opacity:1" fill="#2e5fb8" d="M 107.5,225.5 C 107.5,226.5 107.5,227.5 107.5,228.5C 107.433,229.959 107.766,231.292 108.5,232.5C 106.323,233.365 105.323,235.032 105.5,237.5C 106.867,241.381 107.867,245.381 108.5,249.5C 108.065,251.297 108.065,253.297 108.5,255.5C 103.691,247.343 102.358,238.677 104.5,229.5C 105.978,228.552 106.978,227.219 107.5,225.5 Z"/></g>
<g><path style="opacity:1" fill="#5070be" d="M 145.5,226.5 C 146.167,227.833 147.167,228.833 148.5,229.5C 148.714,231.144 148.38,232.644 147.5,234C 144.314,233.886 141.314,234.053 138.5,234.5C 137.833,234.833 137.167,235.167 136.5,235.5C 136.5,233.167 136.5,230.833 136.5,228.5C 137.791,228.263 138.791,228.596 139.5,229.5C 138.711,229.783 138.044,230.283 137.5,231C 140.513,231.502 143.513,232.002 146.5,232.5C 146.473,230.801 145.806,229.467 144.5,228.5C 144.328,227.508 144.662,226.842 145.5,226.5 Z"/></g>
<g><path style="opacity:0.984" fill="#6c98d3" d="M 316.5,233.5 C 313.941,233.198 311.607,233.532 309.5,234.5C 307.473,234.338 305.473,234.505 303.5,235C 302.663,236.011 302.33,237.178 302.5,238.5C 302.335,241.85 302.502,245.183 303,248.5C 303.995,249.066 304.828,249.733 305.5,250.5C 304.5,250.5 303.5,250.5 302.5,250.5C 301.883,250.389 301.383,250.056 301,249.5C 300.174,244.411 300.508,239.411 302,234.5C 304.133,232.147 306.8,231.147 310,231.5C 312.544,231.336 314.71,232.003 316.5,233.5 Z"/></g>
<g><path style="opacity:1" fill="#36b1f6" d="M 108.5,232.5 C 113.119,233.127 115.119,235.794 114.5,240.5C 113.833,240.833 113.167,241.167 112.5,241.5C 113.315,237.167 111.648,234.834 107.5,234.5C 108.901,238.631 109.567,242.964 109.5,247.5C 110.959,247.433 112.292,247.766 113.5,248.5C 112.081,249.451 110.415,249.784 108.5,249.5C 107.867,245.381 106.867,241.381 105.5,237.5C 105.323,235.032 106.323,233.365 108.5,232.5 Z"/></g>
<g><path style="opacity:1" fill="#2db6fb" d="M 114.5,229.5 C 115.5,229.5 116.5,229.5 117.5,229.5C 118.6,230.605 119.267,231.938 119.5,233.5C 118.83,242.553 121.496,243.719 127.5,237C 130.171,236.167 132.504,236.667 134.5,238.5C 133.689,241.645 133.355,244.645 133.5,247.5C 133.167,247.5 132.833,247.5 132.5,247.5C 131.962,245.883 131.629,244.216 131.5,242.5C 132.833,241.167 132.833,239.833 131.5,238.5C 128.561,238.918 126.228,240.418 124.5,243C 123.207,243.49 121.873,243.657 120.5,243.5C 117.486,240.934 116.819,237.767 118.5,234C 117.644,232.405 116.311,231.572 114.5,231.5C 114.5,230.833 114.5,230.167 114.5,229.5 Z"/></g>
<g><path style="opacity:1" fill="#0373cf" d="M 122.5,233.5 C 125.11,234.722 127.777,234.722 130.5,233.5C 132.029,233.529 133.196,234.196 134,235.5C 134.464,234.906 134.631,234.239 134.5,233.5C 135.494,234.999 135.494,236.666 134.5,238.5C 132.504,236.667 130.171,236.167 127.5,237C 121.496,243.719 118.83,242.553 119.5,233.5C 120.5,232.167 121.5,232.167 122.5,233.5 Z"/></g>
<g><path style="opacity:1" fill="#87bcf2" d="M 148.5,229.5 C 149.702,230.405 151.036,230.405 152.5,229.5C 152.5,229.833 152.5,230.167 152.5,230.5C 151.799,233.563 151.132,236.73 150.5,240C 149.167,240.667 147.833,240.667 146.5,240C 145.837,238.482 144.837,237.315 143.5,236.5C 141.833,235.833 140.167,235.167 138.5,234.5C 141.314,234.053 144.314,233.886 147.5,234C 148.38,232.644 148.714,231.144 148.5,229.5 Z"/></g>
<g><path style="opacity:1" fill="#206fcb" d="M 309.5,234.5 C 311.607,233.532 313.941,233.198 316.5,233.5C 317.324,236.764 317.658,240.098 317.5,243.5C 315.833,243.5 314.167,243.5 312.5,243.5C 312.5,242.167 312.5,240.833 312.5,239.5C 312.611,238.883 312.944,238.383 313.5,238C 311.527,237.505 309.527,237.338 307.5,237.5C 309.663,236.531 311.996,235.698 314.5,235C 312.866,234.506 311.199,234.34 309.5,234.5 Z"/></g>
<g><path style="opacity:1" fill="#4d74c3" d="M 152.5,230.5 C 153.791,230.263 154.791,230.596 155.5,231.5C 154.006,234.941 152.673,238.608 151.5,242.5C 150.554,242.987 149.554,243.32 148.5,243.5C 146.102,242.611 144.102,241.111 142.5,239C 141.251,238.26 140.251,238.427 139.5,239.5C 138.691,241.292 138.191,243.292 138,245.5C 137.333,242.833 137.333,240.167 138,237.5C 139.699,236.594 141.533,236.261 143.5,236.5C 144.837,237.315 145.837,238.482 146.5,240C 147.833,240.667 149.167,240.667 150.5,240C 151.132,236.73 151.799,233.563 152.5,230.5 Z"/></g>
<g><path style="opacity:1" fill="#6384d2" d="M 161.5,232.5 C 162.26,233.893 162.926,235.393 163.5,237C 162.316,239.716 161.316,242.549 160.5,245.5C 159.066,243.78 158.233,241.78 158,239.5C 157.617,240.056 157.117,240.389 156.5,240.5C 155.672,236.138 157.339,233.471 161.5,232.5 Z"/></g>
<g><path style="opacity:1" fill="#186ed4" d="M 309.5,234.5 C 311.199,234.34 312.866,234.506 314.5,235C 311.996,235.698 309.663,236.531 307.5,237.5C 306.527,239.948 306.194,242.615 306.5,245.5C 305.896,242.782 304.563,240.449 302.5,238.5C 302.33,237.178 302.663,236.011 303.5,235C 305.473,234.505 307.473,234.338 309.5,234.5 Z"/></g>
<g><path style="opacity:1" fill="#206cc7" d="M 248.5,237.5 C 248.5,238.833 248.5,240.167 248.5,241.5C 244.833,241.5 241.167,241.5 237.5,241.5C 240.358,240.834 243.358,240.167 246.5,239.5C 242.217,238.508 237.884,238.174 233.5,238.5C 233.5,239.833 233.5,241.167 233.5,242.5C 233.5,243.167 233.5,243.833 233.5,244.5C 233.167,244.5 232.833,244.5 232.5,244.5C 232.5,242.167 232.5,239.833 232.5,237.5C 237.833,237.5 243.167,237.5 248.5,237.5 Z"/></g>
<g><path style="opacity:1" fill="#0e41a5" d="M 136.5,209.5 C 136.5,210.167 136.5,210.833 136.5,211.5C 136.5,217.167 136.5,222.833 136.5,228.5C 136.5,230.833 136.5,233.167 136.5,235.5C 136.5,239.833 136.5,244.167 136.5,248.5C 136.5,249.833 136.5,251.167 136.5,252.5C 136.5,255.5 136.5,258.5 136.5,261.5C 136.047,256.721 135.047,252.054 133.5,247.5C 133.355,244.645 133.689,241.645 134.5,238.5C 135.494,236.666 135.494,234.999 134.5,233.5C 134.5,233.167 134.5,232.833 134.5,232.5C 134.5,231.5 134.5,230.5 134.5,229.5C 134.5,223.5 134.5,217.5 134.5,211.5C 134.5,210.167 135.167,209.5 136.5,209.5 Z"/></g>
<g><path style="opacity:0.937" fill="#6c9dde" d="M 307.5,237.5 C 309.527,237.338 311.527,237.505 313.5,238C 312.944,238.383 312.611,238.883 312.5,239.5C 307.654,238.251 306.321,240.085 308.5,245C 310.315,245.757 311.981,246.59 313.5,247.5C 311.856,247.286 310.356,247.62 309,248.5C 308.623,247.058 307.79,246.058 306.5,245.5C 306.194,242.615 306.527,239.948 307.5,237.5 Z"/></g>
<g><path style="opacity:1" fill="#166ed7" d="M 327.5,260.5 C 328.984,262.074 330.651,263.407 332.5,264.5C 330.059,265.756 327.726,265.756 325.5,264.5C 324.198,255.892 324.198,247.226 325.5,238.5C 326.167,245.989 326.833,253.322 327.5,260.5 Z"/></g>
<g><path style="opacity:0.987" fill="#87afdc" d="M 179.5,231.5 C 181.792,231.244 183.959,231.577 186,232.5C 186.667,243.5 186.667,254.5 186,265.5C 183.667,268.167 181.333,268.167 179,265.5C 178.19,254.091 178.357,242.757 179.5,231.5 Z"/></g>
<g><path style="opacity:1" fill="#186ed3" d="M 180.5,257.5 C 181.222,257.082 181.722,256.416 182,255.5C 182.252,249.47 182.752,243.47 183.5,237.5C 183.167,236.833 182.833,236.167 182.5,235.5C 181.818,236.243 181.151,236.909 180.5,237.5C 180.5,236.167 180.5,234.833 180.5,233.5C 181.833,233.5 183.167,233.5 184.5,233.5C 184.5,244.167 184.5,254.833 184.5,265.5C 183.167,265.5 181.833,265.5 180.5,265.5C 180.5,262.833 180.5,260.167 180.5,257.5 Z"/></g>
<g><path style="opacity:1" fill="#166dd6" d="M 180.5,257.5 C 180.5,250.833 180.5,244.167 180.5,237.5C 181.151,236.909 181.818,236.243 182.5,235.5C 182.833,236.167 183.167,236.833 183.5,237.5C 182.752,243.47 182.252,249.47 182,255.5C 181.722,256.416 181.222,257.082 180.5,257.5 Z"/></g>
<g><path style="opacity:0.008" fill="#effffe" d="M 189.5,236.5 C 189.5,246.167 189.5,255.833 189.5,265.5C 188.883,265.389 188.383,265.056 188,264.5C 187.333,256.167 187.333,247.833 188,239.5C 188.232,238.263 188.732,237.263 189.5,236.5 Z"/></g>
<g><path style="opacity:0.929" fill="#5d93d3" d="M 200.5,246.5 C 200.5,247.167 200.5,247.833 200.5,248.5C 199.5,247.833 198.5,247.167 197.5,246.5C 197.25,245.078 196.417,244.078 195,243.5C 194.667,241.833 194.333,240.167 194,238.5C 192.989,237.663 191.822,237.33 190.5,237.5C 190.5,243.167 190.5,248.833 190.5,254.5C 190.5,258.167 190.5,261.833 190.5,265.5C 192.483,265.843 193.817,265.176 194.5,263.5C 194.5,259.167 194.5,254.833 194.5,250.5C 195.906,250.973 196.573,251.973 196.5,253.5C 195.675,257.647 195.175,261.981 195,266.5C 192.661,268.078 190.828,267.745 189.5,265.5C 189.5,255.833 189.5,246.167 189.5,236.5C 190.946,235.387 192.613,235.22 194.5,236C 196.415,239.676 198.415,243.176 200.5,246.5 Z"/></g>
<g><path style="opacity:1" fill="#1a6ed2" d="M 197.5,246.5 C 197.5,247.5 197.5,248.5 197.5,249.5C 195.089,249.863 193.589,248.863 193,246.5C 192.156,248.463 192.656,249.796 194.5,250.5C 194.5,254.833 194.5,259.167 194.5,263.5C 193.834,259.647 193.167,255.647 192.5,251.5C 191.824,252.602 191.158,253.602 190.5,254.5C 190.5,248.833 190.5,243.167 190.5,237.5C 191.822,237.33 192.989,237.663 194,238.5C 194.333,240.167 194.667,241.833 195,243.5C 196.417,244.078 197.25,245.078 197.5,246.5 Z"/></g>
<g><path style="opacity:1" fill="#176dd9" d="M 258.5,260.5 C 258.5,261.167 258.833,261.5 259.5,261.5C 261.698,262.165 264.031,262.832 266.5,263.5C 262.555,264.491 258.555,264.824 254.5,264.5C 254.169,255.808 254.502,247.141 255.5,238.5C 255.855,246.213 256.855,253.546 258.5,260.5 Z"/></g>
<g><path style="opacity:0.174" fill="#abd6f7" d="M 258.5,236.5 C 259.329,244.323 259.829,252.323 260,260.5C 262.685,260.173 265.518,260.173 268.5,260.5C 268.795,262.735 268.461,264.735 267.5,266.5C 267.5,264.833 267.5,263.167 267.5,261.5C 264.833,261.5 262.167,261.5 259.5,261.5C 258.833,261.5 258.5,261.167 258.5,260.5C 258.5,252.833 258.5,245.167 258.5,237.5C 258.5,237.167 258.5,236.833 258.5,236.5 Z"/></g>
<g><path style="opacity:1" fill="#6393d2" d="M 277.5,236.5 C 277.5,244.833 277.5,253.167 277.5,261.5C 276.508,253.684 276.174,245.684 276.5,237.5C 275.5,237.5 274.5,237.5 273.5,237.5C 273.5,246.833 273.5,256.167 273.5,265.5C 277.833,265.5 282.167,265.5 286.5,265.5C 286.5,265.833 286.5,266.167 286.5,266.5C 281.766,267.824 276.933,267.824 272,266.5C 271.333,256.5 271.333,246.5 272,236.5C 273.943,235.193 275.777,235.193 277.5,236.5 Z"/></g>
<g><path style="opacity:1" fill="#1b6dd1" d="M 277.5,261.5 C 280.5,261.5 283.5,261.5 286.5,261.5C 286.5,262.833 286.5,264.167 286.5,265.5C 282.167,265.5 277.833,265.5 273.5,265.5C 273.5,256.167 273.5,246.833 273.5,237.5C 274.5,237.5 275.5,237.5 276.5,237.5C 276.174,245.684 276.508,253.684 277.5,261.5 Z"/></g>
<g><path style="opacity:0.429" fill="#90bcea" d="M 277.5,236.5 C 278.329,244.323 278.829,252.323 279,260.5C 281.75,259.709 284.583,259.709 287.5,260.5C 287.795,262.735 287.461,264.735 286.5,266.5C 286.5,266.167 286.5,265.833 286.5,265.5C 286.5,264.167 286.5,262.833 286.5,261.5C 283.5,261.5 280.5,261.5 277.5,261.5C 277.5,253.167 277.5,244.833 277.5,236.5 Z"/></g>
<g><path style="opacity:0.984" fill="#8badd8" d="M 316.5,233.5 C 317.117,233.611 317.617,233.944 318,234.5C 319.124,237.442 319.458,240.442 319,243.5C 316.726,244.811 314.56,244.811 312.5,243.5C 314.167,243.5 315.833,243.5 317.5,243.5C 317.658,240.098 317.324,236.764 316.5,233.5 Z"/></g>
<g><path style="opacity:0.433" fill="#9cc8f4" d="M 339.5,262.5 C 339.5,258.833 339.5,255.167 339.5,251.5C 339.5,246.833 339.5,242.167 339.5,237.5C 337.833,237.5 336.167,237.5 334.5,237.5C 334.5,244.833 334.5,252.167 334.5,259.5C 333.121,261.597 331.455,261.93 329.5,260.5C 330.583,260.461 331.583,260.127 332.5,259.5C 333.167,251.833 333.833,244.167 334.5,236.5C 336.371,235.233 338.204,235.233 340,236.5C 340.824,245.343 340.657,254.01 339.5,262.5 Z"/></g>
<g><path style="opacity:1" fill="#236cbf" d="M 339.5,251.5 C 339.167,251.5 338.833,251.5 338.5,251.5C 338.5,247.167 338.5,242.833 338.5,238.5C 337.5,238.5 336.5,238.5 335.5,238.5C 334.939,244.724 335.605,250.724 337.5,256.5C 336.452,257.548 335.452,258.548 334.5,259.5C 334.5,252.167 334.5,244.833 334.5,237.5C 336.167,237.5 337.833,237.5 339.5,237.5C 339.5,242.167 339.5,246.833 339.5,251.5 Z"/></g>
<g><path style="opacity:0.997" fill="#1b6ed3" d="M 237.5,241.5 C 237.5,242.167 237.5,242.833 237.5,243.5C 237.5,244.167 237.5,244.833 237.5,245.5C 237.5,246.833 237.5,248.167 237.5,249.5C 238.833,249.5 240.167,249.5 241.5,249.5C 241.5,249.833 241.5,250.167 241.5,250.5C 239.801,250.66 238.134,250.494 236.5,250C 236.154,247.06 235.154,244.56 233.5,242.5C 233.5,241.167 233.5,239.833 233.5,238.5C 237.884,238.174 242.217,238.508 246.5,239.5C 243.358,240.167 240.358,240.834 237.5,241.5 Z"/></g>
<g><path style="opacity:1" fill="#1e6dc6" d="M 327.5,260.5 C 326.833,253.322 326.167,245.989 325.5,238.5C 324.198,247.226 324.198,255.892 325.5,264.5C 324.833,264.5 324.167,264.5 323.5,264.5C 323.5,255.5 323.5,246.5 323.5,237.5C 324.833,237.5 326.167,237.5 327.5,237.5C 327.5,245.167 327.5,252.833 327.5,260.5 Z"/></g>
<g><path style="opacity:0.027" fill="#d5fcff" d="M 202.5,237.5 C 202.5,241.833 202.5,246.167 202.5,250.5C 202.672,251.492 202.338,252.158 201.5,252.5C 201.167,251.167 200.833,249.833 200.5,248.5C 201.833,247.833 201.833,247.167 200.5,246.5C 200.858,243.311 201.525,240.311 202.5,237.5 Z"/></g>
<g><path style="opacity:0.834" fill="#87add6" d="M 248.5,236.5 C 249.461,238.265 249.795,240.265 249.5,242.5C 245.466,242.505 241.466,242.838 237.5,243.5C 237.5,242.833 237.5,242.167 237.5,241.5C 241.167,241.5 244.833,241.5 248.5,241.5C 248.5,240.167 248.5,238.833 248.5,237.5C 248.5,237.167 248.5,236.833 248.5,236.5 Z"/></g>
<g><path style="opacity:1" fill="#3a42aa" d="M 167.5,233.5 C 167.849,239.008 167.183,244.341 165.5,249.5C 164.202,248.884 163.202,248.884 162.5,249.5C 160.302,249.591 159.969,248.925 161.5,247.5C 163.718,243.487 165.051,239.153 165.5,234.5C 166.183,234.137 166.85,233.804 167.5,233.5 Z"/></g>
<g><path style="opacity:0.366" fill="#96c5f5" d="M 344.5,236.5 C 344.5,238.833 344.5,241.167 344.5,243.5C 344.5,250.833 344.5,258.167 344.5,265.5C 346.167,265.5 347.833,265.5 349.5,265.5C 349.5,261.167 349.5,256.833 349.5,252.5C 349.5,251.5 349.5,250.5 349.5,249.5C 350.401,250.29 351.068,251.29 351.5,252.5C 351.5,253.167 351.5,253.833 351.5,254.5C 350.676,258.312 350.176,262.312 350,266.5C 348.089,266.745 346.089,266.745 344,266.5C 343.175,256.325 343.342,246.325 344.5,236.5 Z"/></g>
<g><path style="opacity:1" fill="#246fc8" d="M 363.5,251.5 C 364.327,255.363 365.161,259.363 366,263.5C 366.5,255.173 366.666,246.84 366.5,238.5C 364.019,238.323 362.186,239.323 361,241.5C 360.199,244.367 360.366,247.034 361.5,249.5C 361.5,250.833 361.5,252.167 361.5,253.5C 359.692,252.082 359.025,250.082 359.5,247.5C 359.5,246.167 359.5,244.833 359.5,243.5C 359.366,241.708 359.699,240.042 360.5,238.5C 362.717,237.631 365.05,237.298 367.5,237.5C 367.5,246.833 367.5,256.167 367.5,265.5C 366.167,265.5 364.833,265.5 363.5,265.5C 363.5,260.833 363.5,256.167 363.5,251.5 Z"/></g>
<g><path style="opacity:1" fill="#0160c2" d="M 112.5,241.5 C 112.325,243.621 112.659,245.621 113.5,247.5C 113.5,247.833 113.5,248.167 113.5,248.5C 112.292,247.766 110.959,247.433 109.5,247.5C 109.567,242.964 108.901,238.631 107.5,234.5C 111.648,234.834 113.315,237.167 112.5,241.5 Z"/></g>
<g><path style="opacity:1" fill="#0364c7" d="M 131.5,238.5 C 129.931,240.983 128.265,243.483 126.5,246C 123.853,246.179 121.186,246.012 118.5,245.5C 116.667,245.415 115.334,244.748 114.5,243.5C 116.5,243.5 118.5,243.5 120.5,243.5C 121.873,243.657 123.207,243.49 124.5,243C 126.228,240.418 128.561,238.918 131.5,238.5 Z"/></g>
<g><path style="opacity:1" fill="#628ed0" d="M 207.5,266.5 C 207.326,264.139 206.993,261.806 206.5,259.5C 206.666,252.492 206.5,245.492 206,238.5C 203.863,240.321 203.03,242.654 203.5,245.5C 203.784,247.415 203.451,249.081 202.5,250.5C 202.5,246.167 202.5,241.833 202.5,237.5C 203.828,235.255 205.661,234.922 208,236.5C 208.825,246.675 208.658,256.675 207.5,266.5 Z"/></g>
<g><path style="opacity:1" fill="#166ed8" d="M 349.5,249.5 C 349.5,250.5 349.5,251.5 349.5,252.5C 348.517,256.298 348.183,260.298 348.5,264.5C 347.5,264.5 346.5,264.5 345.5,264.5C 345.5,260.167 345.5,255.833 345.5,251.5C 346.324,247.688 346.824,243.688 347,239.5C 348.395,240.815 349.395,240.481 350,238.5C 350.216,240.384 350.883,242.051 352,243.5C 352.667,245.5 352.667,247.5 352,249.5C 351.023,248.226 350.189,248.226 349.5,249.5 Z"/></g>
<g><path style="opacity:1" fill="#166ed7" d="M 363.5,251.5 C 363.719,250.325 363.386,249.325 362.5,248.5C 361.893,248.624 361.56,248.957 361.5,249.5C 360.366,247.034 360.199,244.367 361,241.5C 362.186,239.323 364.019,238.323 366.5,238.5C 366.666,246.84 366.5,255.173 366,263.5C 365.161,259.363 364.327,255.363 363.5,251.5 Z"/></g>
<g><path style="opacity:1" fill="#84b5ef" d="M 155.5,231.5 C 157.735,231.205 159.735,231.539 161.5,232.5C 157.339,233.471 155.672,236.138 156.5,240.5C 156.5,242.167 156.5,243.833 156.5,245.5C 154.167,245.5 151.833,245.5 149.5,245.5C 145.459,246.683 142.959,245.016 142,240.5C 141.329,239.748 140.496,239.414 139.5,239.5C 140.251,238.427 141.251,238.26 142.5,239C 144.102,241.111 146.102,242.611 148.5,243.5C 149.554,243.32 150.554,242.987 151.5,242.5C 152.673,238.608 154.006,234.941 155.5,231.5 Z"/></g>
<g><path style="opacity:0.95" fill="#7fa3d0" d="M 362.5,263.5 C 362.5,261.833 362.5,260.167 362.5,258.5C 362.768,256.901 362.434,255.568 361.5,254.5C 361.5,254.167 361.5,253.833 361.5,253.5C 361.5,252.167 361.5,250.833 361.5,249.5C 361.56,248.957 361.893,248.624 362.5,248.5C 363.386,249.325 363.719,250.325 363.5,251.5C 363.5,256.167 363.5,260.833 363.5,265.5C 364.833,265.5 366.167,265.5 367.5,265.5C 367.5,256.167 367.5,246.833 367.5,237.5C 365.05,237.298 362.717,237.631 360.5,238.5C 360.685,236.11 362.018,235.11 364.5,235.5C 366.374,235.39 367.874,236.056 369,237.5C 369.729,247.527 369.563,257.527 368.5,267.5C 364.759,268.401 362.759,267.068 362.5,263.5 Z"/></g>
<g><path style="opacity:1" fill="#417ed2" d="M 203.5,245.5 C 204.649,245.791 205.316,246.624 205.5,248C 203.647,252.631 202.814,257.464 203,262.5C 203.422,260.574 204.589,259.574 206.5,259.5C 206.993,261.806 207.326,264.139 207.5,266.5C 205.511,267.887 203.678,267.553 202,265.5C 200.214,262.264 198.714,258.93 197.5,255.5C 201.059,258.506 202.392,257.506 201.5,252.5C 202.338,252.158 202.672,251.492 202.5,250.5C 203.451,249.081 203.784,247.415 203.5,245.5 Z"/></g>
<g><path style="opacity:0.896" fill="#6a92c7" d="M 329.5,260.5 C 328.833,260.5 328.167,260.5 327.5,260.5C 327.5,252.833 327.5,245.167 327.5,237.5C 326.167,237.5 324.833,237.5 323.5,237.5C 323.5,246.5 323.5,255.5 323.5,264.5C 322.734,262.316 322.067,259.982 321.5,257.5C 322.15,250.303 322.817,243.136 323.5,236C 325.112,235.28 326.612,235.446 328,236.5C 328.408,244.631 328.908,252.631 329.5,260.5 Z"/></g>
<g><path style="opacity:1" fill="#2facf6" d="M 131.5,238.5 C 132.833,239.833 132.833,241.167 131.5,242.5C 129.937,243.945 128.604,245.611 127.5,247.5C 126.833,247.5 126.5,247.833 126.5,248.5C 122.073,247.62 117.74,247.287 113.5,247.5C 112.659,245.621 112.325,243.621 112.5,241.5C 113.167,241.167 113.833,240.833 114.5,240.5C 114.5,241.5 114.5,242.5 114.5,243.5C 115.334,244.748 116.667,245.415 118.5,245.5C 121.186,246.012 123.853,246.179 126.5,246C 128.265,243.483 129.931,240.983 131.5,238.5 Z"/></g>
<g><path style="opacity:1" fill="#0459c0" d="M 131.5,242.5 C 131.629,244.216 131.962,245.883 132.5,247.5C 133.463,249.333 134.13,251.333 134.5,253.5C 134.294,256.336 133.627,259.002 132.5,261.5C 129.948,259.837 130.114,258.17 133,256.5C 133.987,252.652 132.487,250.652 128.5,250.5C 128.737,249.209 128.404,248.209 127.5,247.5C 128.604,245.611 129.937,243.945 131.5,242.5 Z"/></g>
<g><path style="opacity:1" fill="#4462c0" d="M 166.5,229.5 C 167.434,230.568 167.768,231.901 167.5,233.5C 166.85,233.804 166.183,234.137 165.5,234.5C 165.051,239.153 163.718,243.487 161.5,247.5C 158.795,247.38 158.128,248.38 159.5,250.5C 157.5,251.167 155.5,251.833 153.5,252.5C 153.121,254.213 152.121,255.213 150.5,255.5C 150.5,255.167 150.5,254.833 150.5,254.5C 150.281,253.325 150.614,252.325 151.5,251.5C 156.532,248.894 155.865,247.561 149.5,247.5C 149.5,246.833 149.5,246.167 149.5,245.5C 151.833,245.5 154.167,245.5 156.5,245.5C 156.5,243.833 156.5,242.167 156.5,240.5C 157.117,240.389 157.617,240.056 158,239.5C 158.233,241.78 159.066,243.78 160.5,245.5C 161.316,242.549 162.316,239.716 163.5,237C 162.926,235.393 162.26,233.893 161.5,232.5C 162.822,232.33 163.989,232.663 165,233.5C 165.21,231.942 165.71,230.609 166.5,229.5 Z"/></g>
<g><path style="opacity:1" fill="#176ed5" d="M 338.5,251.5 C 338.665,255.182 338.499,258.848 338,262.5C 336.599,264.192 334.766,264.859 332.5,264.5C 330.651,263.407 328.984,262.074 327.5,260.5C 328.167,260.5 328.833,260.5 329.5,260.5C 331.455,261.93 333.121,261.597 334.5,259.5C 335.452,258.548 336.452,257.548 337.5,256.5C 335.605,250.724 334.939,244.724 335.5,238.5C 336.5,238.5 337.5,238.5 338.5,238.5C 338.5,242.833 338.5,247.167 338.5,251.5 Z"/></g>
<g><path style="opacity:1" fill="#547fcc" d="M 138.5,234.5 C 140.167,235.167 141.833,235.833 143.5,236.5C 141.533,236.261 139.699,236.594 138,237.5C 137.333,240.167 137.333,242.833 138,245.5C 138.191,243.292 138.691,241.292 139.5,239.5C 140.496,239.414 141.329,239.748 142,240.5C 142.959,245.016 145.459,246.683 149.5,245.5C 149.5,246.167 149.5,246.833 149.5,247.5C 145.049,248.982 141.882,247.316 140,242.5C 139.994,245.264 138.828,247.264 136.5,248.5C 136.5,244.167 136.5,239.833 136.5,235.5C 137.167,235.167 137.833,234.833 138.5,234.5 Z"/></g>
<g><path style="opacity:1" fill="#196dd5" d="M 302.5,238.5 C 304.563,240.449 305.896,242.782 306.5,245.5C 307.79,246.058 308.623,247.058 309,248.5C 310.356,247.62 311.856,247.286 313.5,247.5C 314.287,249.104 315.62,249.771 317.5,249.5C 317.5,251.5 317.5,253.5 317.5,255.5C 316.539,257.265 316.205,259.265 316.5,261.5C 315.5,261.5 314.5,261.5 313.5,261.5C 314.329,258.531 314.495,255.531 314,252.5C 312.644,251.62 311.144,251.286 309.5,251.5C 308.041,251.567 306.708,251.234 305.5,250.5C 304.828,249.733 303.995,249.066 303,248.5C 302.502,245.183 302.335,241.85 302.5,238.5 Z"/></g>
<g><path style="opacity:0.737" fill="#a2ccec" d="M 353.5,244.5 C 354.738,246.214 355.405,248.214 355.5,250.5C 355.167,250.5 354.833,250.5 354.5,250.5C 353.85,248.565 353.517,246.565 353.5,244.5 Z"/></g>
<g><path style="opacity:1" fill="#166dd7" d="M 206.5,259.5 C 204.589,259.574 203.422,260.574 203,262.5C 202.814,257.464 203.647,252.631 205.5,248C 205.316,246.624 204.649,245.791 203.5,245.5C 203.03,242.654 203.863,240.321 206,238.5C 206.5,245.492 206.666,252.492 206.5,259.5 Z"/></g>
<g><path style="opacity:0.601" fill="#8cb4e0" d="M 222.5,266.5 C 222.5,258.5 222.5,250.5 222.5,242.5C 223.919,241.549 225.585,241.216 227.5,241.5C 227.5,240.167 227.5,238.833 227.5,237.5C 222.5,237.5 217.5,237.5 212.5,237.5C 212.351,238.552 212.517,239.552 213,240.5C 214.878,241.053 216.378,242.053 217.5,243.5C 217.5,251.167 217.5,258.833 217.5,266.5C 216.671,259.011 216.171,251.344 216,243.5C 214.301,242.594 212.467,242.261 210.5,242.5C 210.244,240.208 210.577,238.041 211.5,236C 217.084,235.194 222.584,235.361 228,236.5C 228.667,238.5 228.667,240.5 228,242.5C 226.701,242.966 225.201,242.966 223.5,242.5C 223.826,250.684 223.492,258.684 222.5,266.5 Z"/></g>
<g><path style="opacity:1" fill="#196dd3" d="M 222.5,242.5 C 221.883,242.611 221.383,242.944 221,243.5C 220.089,255.175 218.923,255.175 217.5,243.5C 216.378,242.053 214.878,241.053 213,240.5C 212.517,239.552 212.351,238.552 212.5,237.5C 217.5,237.5 222.5,237.5 227.5,237.5C 227.5,238.833 227.5,240.167 227.5,241.5C 225.585,241.216 223.919,241.549 222.5,242.5 Z"/></g>
<g><path style="opacity:0.643" fill="#80abda" d="M 237.5,245.5 C 238.404,246.209 238.737,247.209 238.5,248.5C 241.167,248.5 243.833,248.5 246.5,248.5C 246.795,250.735 246.461,252.735 245.5,254.5C 245.5,252.833 245.5,251.167 245.5,249.5C 244.167,249.5 242.833,249.5 241.5,249.5C 240.167,249.5 238.833,249.5 237.5,249.5C 237.5,248.167 237.5,246.833 237.5,245.5 Z"/></g>
<g><path style="opacity:0.68" fill="#8fb8e7" d="M 296.5,266.5 C 296.5,266.167 296.5,265.833 296.5,265.5C 296.5,264.833 296.5,264.167 296.5,263.5C 296.5,254.833 296.5,246.167 296.5,237.5C 294.833,237.5 293.167,237.5 291.5,237.5C 291.5,247.167 291.5,256.833 291.5,266.5C 290.342,256.675 290.175,246.675 291,236.5C 293,235.167 295,235.167 297,236.5C 297.825,246.675 297.658,256.675 296.5,266.5 Z"/></g>
<g><path style="opacity:1" fill="#1d4ab3" d="M 113.5,247.5 C 117.74,247.287 122.073,247.62 126.5,248.5C 123.689,249.475 120.689,250.142 117.5,250.5C 115.62,250.229 114.287,250.896 113.5,252.5C 112.32,254.856 112.654,257.189 114.5,259.5C 116.84,261.679 119.507,263.013 122.5,263.5C 120.585,263.216 118.919,263.549 117.5,264.5C 113.5,262.5 110.5,259.5 108.5,255.5C 108.065,253.297 108.065,251.297 108.5,249.5C 110.415,249.784 112.081,249.451 113.5,248.5C 113.5,248.167 113.5,247.833 113.5,247.5 Z"/></g>
<g><path style="opacity:1" fill="#0456be" d="M 127.5,247.5 C 128.404,248.209 128.737,249.209 128.5,250.5C 126.38,251.451 124.714,252.951 123.5,255C 122.552,255.483 121.552,255.649 120.5,255.5C 120.69,253.041 119.69,251.374 117.5,250.5C 120.689,250.142 123.689,249.475 126.5,248.5C 126.5,247.833 126.833,247.5 127.5,247.5 Z"/></g>
<g><path style="opacity:1" fill="#2772d2" d="M 197.5,246.5 C 198.5,247.167 199.5,247.833 200.5,248.5C 200.833,249.833 201.167,251.167 201.5,252.5C 202.392,257.506 201.059,258.506 197.5,255.5C 196.662,255.158 196.328,254.492 196.5,253.5C 196.573,251.973 195.906,250.973 194.5,250.5C 192.656,249.796 192.156,248.463 193,246.5C 193.589,248.863 195.089,249.863 197.5,249.5C 197.5,248.5 197.5,247.5 197.5,246.5 Z"/></g>
<g><path style="opacity:0.651" fill="#a5ccec" d="M 359.5,243.5 C 359.5,244.833 359.5,246.167 359.5,247.5C 358.379,249.741 357.213,252.075 356,254.5C 355.517,253.552 355.351,252.552 355.5,251.5C 357.025,248.921 358.359,246.254 359.5,243.5 Z"/></g>
<g><path style="opacity:1" fill="#75aae9" d="M 149.5,247.5 C 155.865,247.561 156.532,248.894 151.5,251.5C 150.614,252.325 150.281,253.325 150.5,254.5C 149.022,254.762 147.689,254.429 146.5,253.5C 143.586,248.602 140.252,248.268 136.5,252.5C 136.5,251.167 136.5,249.833 136.5,248.5C 138.828,247.264 139.994,245.264 140,242.5C 141.882,247.316 145.049,248.982 149.5,247.5 Z"/></g>
<g><path style="opacity:1" fill="#176dd8" d="M 233.5,242.5 C 235.154,244.56 236.154,247.06 236.5,250C 238.134,250.494 239.801,250.66 241.5,250.5C 242.5,250.5 243.5,250.5 244.5,250.5C 244.649,251.552 244.483,252.552 244,253.5C 241.959,252.577 239.792,252.244 237.5,252.5C 236.417,252.461 235.417,252.127 234.5,251.5C 233.526,249.257 233.192,246.924 233.5,244.5C 233.5,243.833 233.5,243.167 233.5,242.5 Z"/></g>
<g><path style="opacity:0.655" fill="#7daad5" d="M 258.5,236.5 C 258.5,236.833 258.5,237.167 258.5,237.5C 256.833,237.5 255.167,237.5 253.5,237.5C 253.5,246.5 253.5,255.5 253.5,264.5C 253.5,265.167 253.5,265.833 253.5,266.5C 252.342,256.675 252.175,246.675 253,236.5C 254.943,235.193 256.777,235.193 258.5,236.5 Z"/></g>
<g><path style="opacity:0.843" fill="#91beea" d="M 302.5,250.5 C 303.5,250.5 304.5,250.5 305.5,250.5C 306.708,251.234 308.041,251.567 309.5,251.5C 310.9,252.1 311.9,253.1 312.5,254.5C 309.016,253.343 305.683,252.01 302.5,250.5 Z"/></g>
<g><path style="opacity:1" fill="#4555ba" d="M 161.5,247.5 C 159.969,248.925 160.302,249.591 162.5,249.5C 161.701,252.898 160.701,256.231 159.5,259.5C 157.275,262.889 154.275,265.389 150.5,267C 149.177,267.816 148.511,268.983 148.5,270.5C 148.167,270.5 147.833,270.5 147.5,270.5C 146.403,266.573 148.07,264.573 152.5,264.5C 152.746,261.53 154.412,260.197 157.5,260.5C 158.205,257.756 158.205,255.089 157.5,252.5C 154.748,255.263 151.748,257.597 148.5,259.5C 148.5,258.167 147.833,257.5 146.5,257.5C 147.183,255.824 148.517,255.157 150.5,255.5C 152.121,255.213 153.121,254.213 153.5,252.5C 155.5,251.833 157.5,251.167 159.5,250.5C 158.128,248.38 158.795,247.38 161.5,247.5 Z"/></g>
<g><path style="opacity:1" fill="#656bb8" d="M 165.5,249.5 C 164.502,253.505 162.502,256.839 159.5,259.5C 160.701,256.231 161.701,252.898 162.5,249.5C 163.202,248.884 164.202,248.884 165.5,249.5 Z"/></g>
<g><path style="opacity:1" fill="#176ed6" d="M 232.5,244.5 C 232.833,244.5 233.167,244.5 233.5,244.5C 233.192,246.924 233.526,249.257 234.5,251.5C 235.417,252.127 236.417,252.461 237.5,252.5C 237.082,253.222 236.416,253.722 235.5,254C 236.406,255.699 236.739,257.533 236.5,259.5C 234.801,259.527 233.467,260.194 232.5,261.5C 232.5,255.833 232.5,250.167 232.5,244.5 Z"/></g>
<g><path style="opacity:0.992" fill="#487dcf" d="M 353.5,244.5 C 353.517,246.565 353.85,248.565 354.5,250.5C 354.666,254.373 353.666,255.04 351.5,252.5C 351.068,251.29 350.401,250.29 349.5,249.5C 350.189,248.226 351.023,248.226 352,249.5C 352.667,247.5 352.667,245.5 352,243.5C 350.883,242.051 350.216,240.384 350,238.5C 349.395,240.481 348.395,240.815 347,239.5C 346.824,243.688 346.324,247.688 345.5,251.5C 345.806,248.615 345.473,245.948 344.5,243.5C 344.5,241.167 344.5,238.833 344.5,236.5C 346.693,235.203 349.027,235.203 351.5,236.5C 352.785,239.021 353.452,241.687 353.5,244.5 Z"/></g>
<g><path style="opacity:1" fill="#236bc4" d="M 258.5,237.5 C 258.5,245.167 258.5,252.833 258.5,260.5C 256.855,253.546 255.855,246.213 255.5,238.5C 254.502,247.141 254.169,255.808 254.5,264.5C 254.167,264.5 253.833,264.5 253.5,264.5C 253.5,255.5 253.5,246.5 253.5,237.5C 255.167,237.5 256.833,237.5 258.5,237.5 Z"/></g>
<g><path style="opacity:0.988" fill="#7da0cf" d="M 313.5,247.5 C 315.993,247.329 317.826,248.329 319,250.5C 319.667,254.167 319.667,257.833 319,261.5C 318.8,263.32 317.966,264.653 316.5,265.5C 317.207,262.214 317.54,258.881 317.5,255.5C 317.5,253.5 317.5,251.5 317.5,249.5C 315.62,249.771 314.287,249.104 313.5,247.5 Z"/></g>
<g><path style="opacity:1" fill="#4982d0" d="M 359.5,247.5 C 359.025,250.082 359.692,252.082 361.5,253.5C 361.5,253.833 361.5,254.167 361.5,254.5C 361.5,254.833 361.5,255.167 361.5,255.5C 360.349,257.779 359.349,260.112 358.5,262.5C 358.5,260.167 358.5,257.833 358.5,255.5C 357.178,255.33 356.011,255.663 355,256.5C 354.502,259.482 354.335,262.482 354.5,265.5C 355.833,265.5 357.167,265.5 358.5,265.5C 358.5,265.833 358.5,266.167 358.5,266.5C 357.116,267.801 355.616,267.801 354,266.5C 352.53,262.622 351.697,258.622 351.5,254.5C 351.5,253.833 351.5,253.167 351.5,252.5C 353.666,255.04 354.666,254.373 354.5,250.5C 354.833,250.5 355.167,250.5 355.5,250.5C 355.5,250.833 355.5,251.167 355.5,251.5C 355.351,252.552 355.517,253.552 356,254.5C 357.213,252.075 358.379,249.741 359.5,247.5 Z"/></g>
<g><path style="opacity:1" fill="#38a9f9" d="M 113.5,252.5 C 113.5,253.167 113.833,253.5 114.5,253.5C 114.472,255.582 115.139,257.416 116.5,259C 120.5,259.823 124.166,261.323 127.5,263.5C 127.752,266.32 127.252,268.986 126,271.5C 125.667,269.167 125.333,266.833 125,264.5C 124.329,263.748 123.496,263.414 122.5,263.5C 119.507,263.013 116.84,261.679 114.5,259.5C 112.654,257.189 112.32,254.856 113.5,252.5 Z"/></g>
<g><path style="opacity:1" fill="#35abf8" d="M 117.5,250.5 C 119.69,251.374 120.69,253.041 120.5,255.5C 121.552,255.649 122.552,255.483 123.5,255C 124.714,252.951 126.38,251.451 128.5,250.5C 132.487,250.652 133.987,252.652 133,256.5C 130.114,258.17 129.948,259.837 132.5,261.5C 133.391,262.261 134.058,263.261 134.5,264.5C 131.766,266.357 131.099,268.691 132.5,271.5C 131.5,271.5 130.5,271.5 129.5,271.5C 129.321,269.046 129.987,266.879 131.5,265C 131.361,263.699 130.695,262.866 129.5,262.5C 127.955,259.348 128.621,256.681 131.5,254.5C 130.652,252.717 129.319,252.217 127.5,253C 126.257,254.154 125.257,255.488 124.5,257C 123.667,257.167 122.833,257.333 122,257.5C 120.021,255.236 117.521,253.903 114.5,253.5C 113.833,253.5 113.5,253.167 113.5,252.5C 114.287,250.896 115.62,250.229 117.5,250.5 Z"/></g>
<g><path style="opacity:1" fill="#3574ca" d="M 296.5,263.5 C 294.286,262.608 293.286,260.942 293.5,258.5C 294.457,255.738 295.124,252.905 295.5,250C 295.2,245.757 294.534,241.924 293.5,238.5C 292.502,247.475 292.168,256.475 292.5,265.5C 293.833,265.5 295.167,265.5 296.5,265.5C 296.5,265.833 296.5,266.167 296.5,266.5C 294.833,267.833 293.167,267.833 291.5,266.5C 291.5,256.833 291.5,247.167 291.5,237.5C 293.167,237.5 294.833,237.5 296.5,237.5C 296.5,246.167 296.5,254.833 296.5,263.5 Z"/></g>
<g><path style="opacity:0.91" fill="#8eafda" d="M 248.5,236.5 C 248.5,236.833 248.5,237.167 248.5,237.5C 243.167,237.5 237.833,237.5 232.5,237.5C 232.5,239.833 232.5,242.167 232.5,244.5C 232.5,250.167 232.5,255.833 232.5,261.5C 232.5,262.833 232.5,264.167 232.5,265.5C 237.5,265.5 242.5,265.5 247.5,265.5C 247.5,264.167 247.5,262.833 247.5,261.5C 248.451,262.919 248.784,264.585 248.5,266.5C 242.987,267.816 237.32,267.816 231.5,266.5C 230.359,256.881 230.193,247.214 231,237.5C 231.5,237 232,236.5 232.5,236C 238.016,235.183 243.35,235.349 248.5,236.5 Z"/></g>
<g><path style="opacity:1" fill="#5d89c9" d="M 338.5,251.5 C 338.833,251.5 339.167,251.5 339.5,251.5C 339.5,255.167 339.5,258.833 339.5,262.5C 339.489,264.017 338.823,265.184 337.5,266C 332.37,268.334 327.703,267.834 323.5,264.5C 324.167,264.5 324.833,264.5 325.5,264.5C 327.726,265.756 330.059,265.756 332.5,264.5C 334.766,264.859 336.599,264.192 338,262.5C 338.499,258.848 338.665,255.182 338.5,251.5 Z"/></g>
<g><path style="opacity:1" fill="#0345b3" d="M 129.5,262.5 C 128.833,262.833 128.167,263.167 127.5,263.5C 124.166,261.323 120.5,259.823 116.5,259C 115.139,257.416 114.472,255.582 114.5,253.5C 117.521,253.903 120.021,255.236 122,257.5C 122.833,257.333 123.667,257.167 124.5,257C 125.257,255.488 126.257,254.154 127.5,253C 129.319,252.217 130.652,252.717 131.5,254.5C 128.621,256.681 127.955,259.348 129.5,262.5 Z"/></g>
<g><path style="opacity:1" fill="#5380d3" d="M 150.5,254.5 C 150.5,254.833 150.5,255.167 150.5,255.5C 148.517,255.157 147.183,255.824 146.5,257.5C 145.842,258.398 145.176,259.398 144.5,260.5C 142.166,259.159 140.499,259.826 139.5,262.5C 142.229,264.367 141.896,265.367 138.5,265.5C 137.025,263.323 137.025,264.656 138.5,269.5C 137.833,270.167 137.167,270.833 136.5,271.5C 136.5,268.167 136.5,264.833 136.5,261.5C 136.5,258.5 136.5,255.5 136.5,252.5C 140.252,248.268 143.586,248.602 146.5,253.5C 147.689,254.429 149.022,254.762 150.5,254.5 Z"/></g>
<g><path style="opacity:1" fill="#70a6e7" d="M 140.5,252.5 C 143.114,252.277 144.781,253.444 145.5,256C 143.118,258.934 141.118,258.434 139.5,254.5C 139.863,253.817 140.196,253.15 140.5,252.5 Z"/></g>
<g><path style="opacity:1" fill="#1a6ed4" d="M 358.5,262.5 C 358.5,263.5 358.5,264.5 358.5,265.5C 357.167,265.5 355.833,265.5 354.5,265.5C 354.335,262.482 354.502,259.482 355,256.5C 356.011,255.663 357.178,255.33 358.5,255.5C 358.5,257.833 358.5,260.167 358.5,262.5 Z"/></g>
<g><path style="opacity:1" fill="#3073ca" d="M 222.5,242.5 C 222.5,250.5 222.5,258.5 222.5,266.5C 220.833,267.833 219.167,267.833 217.5,266.5C 217.5,258.833 217.5,251.167 217.5,243.5C 218.923,255.175 220.089,255.175 221,243.5C 221.383,242.944 221.883,242.611 222.5,242.5 Z"/></g>
<g><path style="opacity:1" fill="#2840b1" d="M 147.5,270.5 C 143.833,271.167 140.167,271.833 136.5,272.5C 136.5,272.167 136.5,271.833 136.5,271.5C 137.167,270.833 137.833,270.167 138.5,269.5C 141.82,266.236 145.153,262.902 148.5,259.5C 151.748,257.597 154.748,255.263 157.5,252.5C 158.205,255.089 158.205,257.756 157.5,260.5C 154.412,260.197 152.746,261.53 152.5,264.5C 148.07,264.573 146.403,266.573 147.5,270.5 Z"/></g>
<g><path style="opacity:0.651" fill="#a9ccec" d="M 237.5,256.5 C 238.29,257.609 238.79,258.942 239,260.5C 242.02,259.919 245.02,259.585 248,259.5C 249.728,261.819 249.895,264.153 248.5,266.5C 248.784,264.585 248.451,262.919 247.5,261.5C 244.167,261.5 240.833,261.5 237.5,261.5C 237.5,259.833 237.5,258.167 237.5,256.5 Z"/></g>
<g><path style="opacity:1" fill="#72a0d9" d="M 307.5,259.5 C 306.596,258.791 306.263,257.791 306.5,256.5C 305.167,256.5 303.833,256.5 302.5,256.5C 302.368,259.57 302.701,262.57 303.5,265.5C 300.697,262.796 299.863,259.463 301,255.5C 303.041,254.577 305.208,254.244 307.5,254.5C 307.5,256.167 307.5,257.833 307.5,259.5 Z"/></g>
<g><path style="opacity:1" fill="#4a6fcb" d="M 146.5,257.5 C 147.833,257.5 148.5,258.167 148.5,259.5C 145.153,262.902 141.82,266.236 138.5,269.5C 137.025,264.656 137.025,263.323 138.5,265.5C 141.896,265.367 142.229,264.367 139.5,262.5C 140.499,259.826 142.166,259.159 144.5,260.5C 145.176,259.398 145.842,258.398 146.5,257.5 Z"/></g>
<g><path style="opacity:1" fill="#1b6cd1" d="M 194.5,263.5 C 193.817,265.176 192.483,265.843 190.5,265.5C 190.5,261.833 190.5,258.167 190.5,254.5C 191.158,253.602 191.824,252.602 192.5,251.5C 193.167,255.647 193.834,259.647 194.5,263.5 Z"/></g>
<g><path style="opacity:1" fill="#256bbd" d="M 344.5,243.5 C 345.473,245.948 345.806,248.615 345.5,251.5C 345.5,255.833 345.5,260.167 345.5,264.5C 346.5,264.5 347.5,264.5 348.5,264.5C 348.183,260.298 348.517,256.298 349.5,252.5C 349.5,256.833 349.5,261.167 349.5,265.5C 347.833,265.5 346.167,265.5 344.5,265.5C 344.5,258.167 344.5,250.833 344.5,243.5 Z"/></g>
<g><path style="opacity:0.024" fill="#d2edfb" d="M 361.5,255.5 C 361.263,256.791 361.596,257.791 362.5,258.5C 362.5,260.167 362.5,261.833 362.5,263.5C 361.71,262.391 361.21,261.058 361,259.5C 360.61,262.104 359.776,264.438 358.5,266.5C 358.5,266.167 358.5,265.833 358.5,265.5C 358.5,264.5 358.5,263.5 358.5,262.5C 359.349,260.112 360.349,257.779 361.5,255.5 Z"/></g>
<g><path style="opacity:1" fill="#04289c" d="M 132.5,247.5 C 132.833,247.5 133.167,247.5 133.5,247.5C 135.047,252.054 136.047,256.721 136.5,261.5C 136.5,264.833 136.5,268.167 136.5,271.5C 136.5,271.833 136.5,272.167 136.5,272.5C 135.167,272.5 133.833,272.5 132.5,272.5C 132.5,272.167 132.5,271.833 132.5,271.5C 131.099,268.691 131.766,266.357 134.5,264.5C 134.058,263.261 133.391,262.261 132.5,261.5C 133.627,259.002 134.294,256.336 134.5,253.5C 134.13,251.333 133.463,249.333 132.5,247.5 Z"/></g>
<g><path style="opacity:1" fill="#3578d1" d="M 241.5,250.5 C 241.5,250.167 241.5,249.833 241.5,249.5C 242.833,249.5 244.167,249.5 245.5,249.5C 245.5,251.167 245.5,252.833 245.5,254.5C 242.833,255.167 240.167,255.833 237.5,256.5C 237.5,258.167 237.5,259.833 237.5,261.5C 240.833,261.5 244.167,261.5 247.5,261.5C 247.5,262.833 247.5,264.167 247.5,265.5C 242.5,265.5 237.5,265.5 232.5,265.5C 232.5,264.167 232.5,262.833 232.5,261.5C 233.467,260.194 234.801,259.527 236.5,259.5C 236.739,257.533 236.406,255.699 235.5,254C 236.416,253.722 237.082,253.222 237.5,252.5C 239.792,252.244 241.959,252.577 244,253.5C 244.483,252.552 244.649,251.552 244.5,250.5C 243.5,250.5 242.5,250.5 241.5,250.5 Z"/></g>
<g><path style="opacity:1" fill="#1a6cd6" d="M 296.5,263.5 C 296.5,264.167 296.5,264.833 296.5,265.5C 295.167,265.5 293.833,265.5 292.5,265.5C 292.168,256.475 292.502,247.475 293.5,238.5C 294.534,241.924 295.2,245.757 295.5,250C 295.124,252.905 294.457,255.738 293.5,258.5C 293.286,260.942 294.286,262.608 296.5,263.5 Z"/></g>
<g><path style="opacity:1" fill="#3f78d1" d="M 309.5,251.5 C 311.144,251.286 312.644,251.62 314,252.5C 314.495,255.531 314.329,258.531 313.5,261.5C 314.5,261.5 315.5,261.5 316.5,261.5C 316.205,259.265 316.539,257.265 317.5,255.5C 317.54,258.881 317.207,262.214 316.5,265.5C 312.137,268.09 307.804,268.09 303.5,265.5C 302.701,262.57 302.368,259.57 302.5,256.5C 303.833,256.5 305.167,256.5 306.5,256.5C 306.263,257.791 306.596,258.791 307.5,259.5C 308.204,261.344 309.537,261.844 311.5,261C 312.337,259.989 312.67,258.822 312.5,257.5C 312.5,256.5 312.5,255.5 312.5,254.5C 311.9,253.1 310.9,252.1 309.5,251.5 Z"/></g>
<g><path style="opacity:0.631" fill="#8eb8de" d="M 312.5,257.5 C 312.67,258.822 312.337,259.989 311.5,261C 309.537,261.844 308.204,261.344 307.5,259.5C 309.876,260.817 311.543,260.15 312.5,257.5 Z"/></g>
<g><path style="opacity:0.91" fill="#8f91cd" d="M 117.5,264.5 C 119.5,264.5 120.5,265.5 120.5,267.5C 119.167,266.833 118.167,265.833 117.5,264.5 Z"/></g>
<g><path style="opacity:1" fill="#5688cb" d="M 259.5,261.5 C 262.167,261.5 264.833,261.5 267.5,261.5C 267.5,263.167 267.5,264.833 267.5,266.5C 262.833,267.833 258.167,267.833 253.5,266.5C 253.5,265.833 253.5,265.167 253.5,264.5C 253.833,264.5 254.167,264.5 254.5,264.5C 258.555,264.824 262.555,264.491 266.5,263.5C 264.031,262.832 261.698,262.165 259.5,261.5 Z"/></g>
<g><path style="opacity:1" fill="#478ae5" d="M 147.5,270.5 C 146.77,272.045 145.437,272.878 143.5,273C 138.227,274.253 132.894,275.087 127.5,275.5C 128.833,274.833 130.167,274.167 131.5,273.5C 131.5,272.833 131.833,272.5 132.5,272.5C 133.833,272.5 135.167,272.5 136.5,272.5C 140.167,271.833 143.833,271.167 147.5,270.5 Z"/></g>
<g><path style="opacity:1" fill="#1a38a9" d="M 129.5,262.5 C 130.695,262.866 131.361,263.699 131.5,265C 129.987,266.879 129.321,269.046 129.5,271.5C 130.5,271.5 131.5,271.5 132.5,271.5C 132.5,271.833 132.5,272.167 132.5,272.5C 131.833,272.5 131.5,272.833 131.5,273.5C 129.167,273.5 126.833,273.5 124.5,273.5C 123.833,272.833 123.167,272.167 122.5,271.5C 121.833,270.167 121.167,268.833 120.5,267.5C 120.5,265.5 119.5,264.5 117.5,264.5C 118.919,263.549 120.585,263.216 122.5,263.5C 123.496,263.414 124.329,263.748 125,264.5C 125.333,266.833 125.667,269.167 126,271.5C 127.252,268.986 127.752,266.32 127.5,263.5C 128.167,263.167 128.833,262.833 129.5,262.5 Z"/></g>
<g><path style="opacity:1" fill="#0d41ad" d="M 147.5,270.5 C 147.833,270.5 148.167,270.5 148.5,270.5C 149.404,271.209 149.737,272.209 149.5,273.5C 141.114,276.176 132.447,277.676 123.5,278C 124.756,277.583 125.423,276.75 125.5,275.5C 126.167,275.5 126.833,275.5 127.5,275.5C 132.894,275.087 138.227,274.253 143.5,273C 145.437,272.878 146.77,272.045 147.5,270.5 Z"/></g>
<g><path style="opacity:1" fill="#4b84d7" d="M 122.5,271.5 C 123.167,272.167 123.833,272.833 124.5,273.5C 121.742,274.967 122.075,275.633 125.5,275.5C 125.423,276.75 124.756,277.583 123.5,278C 132.447,277.676 141.114,276.176 149.5,273.5C 149.5,274.5 149.5,275.5 149.5,276.5C 144.362,277.408 139.362,278.408 134.5,279.5C 130.11,280.597 125.777,280.597 121.5,279.5C 121.401,276.763 121.735,274.096 122.5,271.5 Z"/></g>
<g><path style="opacity:0.992" fill="#58aaf3" d="M 124.5,273.5 C 126.833,273.5 129.167,273.5 131.5,273.5C 130.167,274.167 128.833,274.833 127.5,275.5C 126.833,275.5 126.167,275.5 125.5,275.5C 122.075,275.633 121.742,274.967 124.5,273.5 Z"/></g>
<g><path style="opacity:1" fill="#3a54bc" d="M 149.5,276.5 C 150.043,276.56 150.376,276.893 150.5,277.5C 150.113,280.238 149.113,282.572 147.5,284.5C 145.735,283.539 143.735,283.205 141.5,283.5C 143.219,282.978 144.552,281.978 145.5,280.5C 146.675,280.719 147.675,280.386 148.5,279.5C 147.833,279.167 147.167,278.833 146.5,278.5C 142.547,279.362 138.547,279.695 134.5,279.5C 139.362,278.408 144.362,277.408 149.5,276.5 Z"/></g>
<g><path style="opacity:1" fill="#073aa8" d="M 145.5,280.5 C 143.265,280.205 141.265,280.539 139.5,281.5C 133.809,281.98 128.142,282.646 122.5,283.5C 122.672,282.508 122.338,281.842 121.5,281.5C 121.5,280.833 121.5,280.167 121.5,279.5C 125.777,280.597 130.11,280.597 134.5,279.5C 138.547,279.695 142.547,279.362 146.5,278.5C 147.167,278.833 147.833,279.167 148.5,279.5C 147.675,280.386 146.675,280.719 145.5,280.5 Z"/></g>
<g><path style="opacity:1" fill="#2c68c9" d="M 139.5,281.5 C 141.265,280.539 143.265,280.205 145.5,280.5C 144.552,281.978 143.219,282.978 141.5,283.5C 136.739,284.328 131.906,284.995 127,285.5C 125.319,285.608 124.152,286.275 123.5,287.5C 121.692,286.082 121.025,284.082 121.5,281.5C 122.338,281.842 122.672,282.508 122.5,283.5C 123.449,284.152 124.615,284.486 126,284.5C 130.489,283.901 134.989,283.401 139.5,283C 140.738,282.31 140.738,281.81 139.5,281.5 Z"/></g>
<g><path style="opacity:1" fill="#4196ec" d="M 139.5,281.5 C 140.738,281.81 140.738,282.31 139.5,283C 134.989,283.401 130.489,283.901 126,284.5C 124.615,284.486 123.449,284.152 122.5,283.5C 128.142,282.646 133.809,281.98 139.5,281.5 Z"/></g>
<g><path style="opacity:1" fill="#0232aa" d="M 141.5,283.5 C 143.735,283.205 145.735,283.539 147.5,284.5C 140.209,285.872 132.542,286.872 124.5,287.5C 124.167,287.5 123.833,287.5 123.5,287.5C 124.152,286.275 125.319,285.608 127,285.5C 131.906,284.995 136.739,284.328 141.5,283.5 Z"/></g>
<g><path style="opacity:1" fill="#3b72d4" d="M 147.5,284.5 C 147.657,287.344 146.324,289.011 143.5,289.5C 143.631,288.624 143.298,287.957 142.5,287.5C 138.191,288.378 133.858,289.212 129.5,290C 130.056,290.383 130.389,290.883 130.5,291.5C 127.465,291.653 125.465,290.32 124.5,287.5C 132.542,286.872 140.209,285.872 147.5,284.5 Z"/></g>
<g><path style="opacity:1" fill="#2a228e" d="M 143.5,289.5 C 140.47,291.876 136.97,293.209 133,293.5C 132.005,292.934 131.172,292.267 130.5,291.5C 130.389,290.883 130.056,290.383 129.5,290C 133.858,289.212 138.191,288.378 142.5,287.5C 143.298,287.957 143.631,288.624 143.5,289.5 Z"/></g>
</svg>
